# xmcd
#
# Track frame offsets:
#	180
#	10973
#	19965
#	30491
#	41651
#	53969
#	66318
#	77866
#	92582
#	106678
#
# Disc length: 1676 seconds
#
# Revision: 1
# Processed by: cddbd v1.4PL0 Copyright (c) Steve Scherf et al.
# Submitted via: CDmax 2.0
#
DISCID=78068a0a
DTITLE=The Nace Brothers - Roots of Steel
DYEAR=1997
DGENRE=Blues
TTITLE0=Heartbreak Hall of Fame
TTITLE1=You've Got The Blues
TTITLE2=Sittin' on a Bar Stool
TTITLE3=Turn Around and She'll Be Gone
TTITLE4=Uptown City Slicker
TTITLE5=Sing Me the Blues
TTITLE6=Cincinnatti
TTITLE7=Midnight Train
TTITLE8=The Kind You Find Tonight
TTITLE9=Thought I Had Love Figured Out
EXTD=
EXTT0=
EXTT1=
EXTT2=
EXTT3=
EXTT4=
EXTT5=
EXTT6=
EXTT7=
EXTT8=
EXTT9=
PLAYORDER=
